<svg width="229" height="40" viewBox="0 0 229 40" fill="none" xmlns="http://www.w3.org/2000/svg">
<path d="M14.3934 4C17.2403 3.99982 20.0234 4.85985 22.3907 6.47133C24.7579 8.08282 26.603 10.3734 27.6926 13.0533C28.7822 15.7333 29.0674 18.6823 28.512 21.5275C27.9568 24.3725 26.5859 26.986 24.5729 29.0373C22.5598 31.0884 19.995 32.4854 17.2028 33.0515C14.4106 33.6174 11.5163 33.3271 8.88603 32.217C6.25577 31.1069 4.00763 29.2271 2.42593 26.8151C0.844232 24.4032 5.45292e-09 21.5675 0 18.6667C-7.31175e-09 14.777 1.51641 11.0466 4.21567 8.29608C6.91493 5.54558 10.576 4.00024 14.3934 4Z" fill="#DFF34F"/>
<path d="M9.56128 26.9946L22.9465 13.3485L9.57098 13.3528V8.85147L26.0742 8.84637H30.4984V13.3476H30.4934L30.4984 30.1695H26.0807L26.0766 16.5265L12.6852 30.1788L9.56128 26.9946Z" fill="url(#paint0_linear_207_8600)"/>
<path d="M38.4891 30.7224H42.9515V24.3546H49.9014C54.4592 24.3546 58.6984 21.0145 58.6984 16.6132C58.6968 11.962 54.6807 8.87177 49.8998 8.87177H38.4891V30.7224ZM54.2345 16.6132C54.2345 18.6732 52.3539 20.2652 49.8998 20.2652H42.9515V12.8983H49.9014C52.3857 12.8986 54.2345 14.4591 54.2345 16.6132ZM81.709 30.7224V15.1148H77.757L77.3108 17.1749C75.6853 15.5519 73.3267 14.6464 70.6493 14.6464C65.3265 14.6464 61.3742 18.1736 61.3742 22.9495C61.3742 27.6617 65.3582 31.1905 70.6493 31.1905C73.3585 31.1905 75.6853 30.2539 77.3108 28.662L77.757 30.7224H81.709ZM65.8363 22.9498C65.8363 20.3591 68.2578 18.4859 71.6053 18.4859C74.9529 18.4859 77.2469 20.3277 77.2469 22.9498C77.2469 25.5405 74.9827 27.32 71.6053 27.32C68.2586 27.3198 65.8363 25.4784 65.8363 22.9498ZM97.3584 36.8718L105.359 15.1148H100.673L96.4656 26.541H93.6287L89.3896 15.1148H84.6726L90.4742 30.7224H94.9055L92.6413 36.8718H97.3584ZM123.016 26.2899C123.016 19.5473 111.829 22.9187 111.829 19.5787C111.829 18.5485 113.103 17.7996 114.857 17.7996C116.96 17.7996 118.108 18.6735 118.299 19.9221H122.761C122.506 16.6756 119.67 14.6467 114.889 14.6467C110.234 14.6467 107.366 16.8642 107.366 19.6099C107.366 25.8839 118.522 22.8563 118.522 26.2899C118.522 27.2887 117.151 28.0691 115.335 28.0691C113.071 28.0691 111.669 27.2576 111.414 25.8839H106.952C107.303 29.1305 110.554 31.1905 115.334 31.1905C119.989 31.1905 123.016 29.0993 123.016 26.2899ZM144.912 24.0109C144.966 23.6596 144.986 23.3044 144.976 22.9495C144.976 17.9865 140.896 14.6464 135.447 14.6464C129.933 14.6464 125.854 18.1736 125.854 22.9495C125.854 27.6617 129.966 31.1905 135.447 31.1905C139.814 31.1905 143.224 29.1305 144.436 25.9462H139.909C139.081 27.07 137.55 27.7568 135.638 27.7568C132.961 27.7568 130.921 26.2585 130.443 24.0109H144.912ZM130.442 21.8257C130.92 19.6406 132.863 18.1736 135.447 18.1736C138.06 18.1736 139.941 19.6095 140.387 21.8257H130.442ZM152.434 22.9495C152.434 20.421 154.665 18.6107 157.726 18.6107C160.115 18.6107 161.901 19.5784 162.634 21.1703H167.257C166.397 17.175 162.634 14.6464 157.729 14.6464C152.119 14.6464 147.976 18.1736 147.976 22.9495C147.976 27.6617 152.15 31.1905 157.729 31.1905C162.669 31.1905 166.462 28.5998 167.291 24.6354H162.667C161.935 26.2585 160.15 27.195 157.728 27.195C154.699 27.195 152.436 25.447 152.436 22.9498L152.434 22.9495ZM185.391 22.3878C185.391 25.1661 183.416 27.1326 180.612 27.1326C177.774 27.1326 175.767 25.1972 175.767 22.3878V15.1148H171.304V22.3881C171.304 27.5699 174.652 31.1908 179.432 31.1908C180.609 31.1951 181.77 30.9188 182.814 30.3859C183.858 29.8529 184.754 29.0793 185.424 28.1317L185.839 30.7224H189.855V15.1148H185.393L185.391 22.3878ZM206.778 14.6464C203.368 14.6464 200.723 16.3945 199.256 19.1737L198.779 15.1158H194.795V30.7224H199.257V26.2899C199.257 21.9197 202.031 19.268 206.78 19.268L206.778 14.6464ZM228.166 24.0112C228.219 23.6599 228.24 23.3047 228.229 22.9498C228.229 17.9867 224.15 14.6467 218.701 14.6467C213.187 14.6467 209.107 18.174 209.107 22.9498C209.107 27.6619 213.219 31.1908 218.701 31.1908C223.067 31.1908 226.478 29.1307 227.689 25.9465H223.162C222.334 27.0703 220.803 27.7571 218.891 27.7571C216.214 27.7571 214.174 26.2588 213.695 24.0112H228.166ZM213.696 21.826C214.174 19.6409 216.117 18.174 218.7 18.174C221.313 18.174 223.194 19.6099 223.641 21.826H213.696Z" fill="#5223BC"/>
<defs>
<linearGradient id="paint0_linear_207_8600" x1="9.56128" y1="16.8887" x2="44.3134" y2="20.8978" gradientUnits="userSpaceOnUse">
<stop stop-color="#5223BC"/>
<stop offset="1" stop-color="#DFF34F"/>
</linearGradient>
</defs>
</svg>
